<svg width="21" height="20" viewBox="0 0 21 20" fill="none" xmlns="http://www.w3.org/2000/svg">
<path d="M18.8203 8.93593L15.2969 12.0109L16.3523 16.5891C16.4082 16.8284 16.3923 17.0789 16.3065 17.3092C16.2208 17.5395 16.0691 17.7395 15.8703 17.884C15.6716 18.0286 15.4346 18.1113 15.1891 18.122C14.9436 18.1326 14.7003 18.0706 14.4898 17.9437L10.4969 15.5219L6.5125 17.9437C6.30201 18.0706 6.05879 18.1326 5.81326 18.122C5.56773 18.1113 5.33078 18.0286 5.13203 17.884C4.93328 17.7395 4.78155 17.5395 4.69582 17.3092C4.61009 17.0789 4.59415 16.8284 4.65 16.5891L5.70391 12.0156L2.17969 8.93593C1.99329 8.77517 1.8585 8.56295 1.79223 8.32589C1.72596 8.08883 1.73116 7.83748 1.80717 7.60336C1.88318 7.36924 2.02662 7.16278 2.2195 7.00985C2.41238 6.85693 2.64612 6.76436 2.89141 6.74375L7.53672 6.3414L9.35 2.0164C9.44469 1.78946 9.60441 1.59561 9.80905 1.45926C10.0137 1.32291 10.2541 1.25015 10.5 1.25015C10.7459 1.25015 10.9863 1.32291 11.191 1.45926C11.3956 1.59561 11.5553 1.78946 11.65 2.0164L13.4688 6.3414L18.1125 6.74375C18.3578 6.76436 18.5915 6.85693 18.7844 7.00985C18.9773 7.16278 19.1207 7.36924 19.1967 7.60336C19.2728 7.83748 19.2779 8.08883 19.2117 8.32589C19.1454 8.56295 19.0106 8.77517 18.8242 8.93593H18.8203Z" fill="#D9D9D9"/>
</svg>
