<svg width="21" height="20" viewBox="0 0 21 20" fill="none" xmlns="http://www.w3.org/2000/svg">
<path d="M18.5462 8.51152L18.4915 8.55922L14.9681 11.6342L14.7423 11.8313L14.8097 12.1233L15.8651 16.7014L15.8654 16.7027C15.8989 16.8463 15.8894 16.9966 15.8379 17.1348C15.7865 17.273 15.6955 17.3929 15.5762 17.4797C15.457 17.5664 15.3148 17.6161 15.1675 17.6224C15.0204 17.6288 14.8748 17.5917 14.7486 17.5159C14.7484 17.5158 14.7482 17.5156 14.7479 17.5155L10.7562 15.0944L10.4966 14.9369L10.2372 15.0946L6.25442 17.5155C6.25413 17.5157 6.25385 17.5158 6.25356 17.516C6.12746 17.5918 5.98186 17.6288 5.83487 17.6224C5.68755 17.6161 5.54538 17.5664 5.42613 17.4797C5.30688 17.3929 5.21585 17.273 5.16441 17.1348L4.69582 17.3092L5.16441 17.1348C5.11297 16.9966 5.10341 16.8463 5.13692 16.7027L5.13723 16.7013L6.19114 12.1279L6.25837 11.8361L6.03292 11.6391L2.5087 8.55943L2.5087 8.55943L2.50624 8.5573C2.3944 8.46085 2.31353 8.33352 2.27377 8.19128C2.23401 8.04904 2.23712 7.89823 2.28273 7.75776C2.32834 7.61729 2.4144 7.49341 2.53013 7.40165L2.22448 7.01614L2.53013 7.40165C2.64586 7.3099 2.7861 7.25436 2.93327 7.24199L2.93455 7.24188L7.57986 6.83954L7.88097 6.81346L7.99783 6.53473L9.81111 2.20973L9.81144 2.20894C9.86814 2.07306 9.96377 1.957 10.0863 1.87536C10.2088 1.79371 10.3528 1.75015 10.5 1.75015C10.6472 1.75015 10.7912 1.79372 10.9137 1.87536C11.0362 1.95699 11.1319 2.07306 11.1886 2.20894L11.1891 2.21022L13.0078 6.53522L13.1249 6.81348L13.4256 6.83954L18.0693 7.24188L18.0706 7.24199C18.2178 7.25436 18.358 7.3099 18.4738 7.40166C18.5895 7.49341 18.6756 7.61729 18.7212 7.75776C18.7668 7.89823 18.7699 8.04904 18.7301 8.19128C18.6964 8.31202 18.633 8.42203 18.5462 8.51152Z" stroke="#D9D9D9"/>
</svg>
