<svg width="44" height="36" viewBox="0 0 44 36" fill="none" xmlns="http://www.w3.org/2000/svg">
<rect x="0.5" y="0.5" width="43" height="35" rx="17.5" stroke="#6D6D6D"/>
<path d="M28.25 10.5H15.75C15.4185 10.5 15.1005 10.6317 14.8661 10.8661C14.6317 11.1005 14.5 11.4185 14.5 11.75V24.25C14.5 24.5815 14.6317 24.8995 14.8661 25.1339C15.1005 25.3683 15.4185 25.5 15.75 25.5H28.25C28.5815 25.5 28.8995 25.3683 29.1339 25.1339C29.3683 24.8995 29.5 24.5815 29.5 24.25V11.75C29.5 11.4185 29.3683 11.1005 29.1339 10.8661C28.8995 10.6317 28.5815 10.5 28.25 10.5ZM26.375 18.625H22.625V22.375C22.625 22.5408 22.5592 22.6997 22.4419 22.8169C22.3247 22.9342 22.1658 23 22 23C21.8342 23 21.6753 22.9342 21.5581 22.8169C21.4408 22.6997 21.375 22.5408 21.375 22.375V18.625H17.625C17.4592 18.625 17.3003 18.5592 17.1831 18.4419C17.0658 18.3247 17 18.1658 17 18C17 17.8342 17.0658 17.6753 17.1831 17.5581C17.3003 17.4408 17.4592 17.375 17.625 17.375H21.375V13.625C21.375 13.4592 21.4408 13.3003 21.5581 13.1831C21.6753 13.0658 21.8342 13 22 13C22.1658 13 22.3247 13.0658 22.4419 13.1831C22.5592 13.3003 22.625 13.4592 22.625 13.625V17.375H26.375C26.5408 17.375 26.6997 17.4408 26.8169 17.5581C26.9342 17.6753 27 17.8342 27 18C27 18.1658 26.9342 18.3247 26.8169 18.4419C26.6997 18.5592 26.5408 18.625 26.375 18.625Z" fill="#D9D9D9"/>
</svg>
