<svg width="24" height="24" viewBox="0 0 24 24" fill="none" xmlns="http://www.w3.org/2000/svg">
<mask id="mask0_2366_13464" style="mask-type:alpha" maskUnits="userSpaceOnUse" x="0" y="0" width="24" height="24">
<rect width="24" height="24" fill="#D9D9D9"/>
</mask>
<g mask="url(#mask0_2366_13464)">
<path d="M10.6742 13.2998H5.52422C5.15755 13.2998 4.84505 13.1706 4.58672 12.9123C4.32839 12.654 4.19922 12.3415 4.19922 11.9748C4.19922 11.6081 4.32839 11.2956 4.58672 11.0373C4.84505 10.779 5.15755 10.6498 5.52422 10.6498H10.6742V5.4998C10.6742 5.13314 10.8034 4.82064 11.0617 4.5623C11.3201 4.30397 11.6326 4.1748 11.9992 4.1748C12.3659 4.1748 12.6784 4.30397 12.9367 4.5623C13.1951 4.82064 13.3242 5.13314 13.3242 5.4998V10.6498H18.4742C18.8409 10.6498 19.1534 10.779 19.4117 11.0373C19.6701 11.2956 19.7992 11.6081 19.7992 11.9748C19.7992 12.3415 19.6701 12.654 19.4117 12.9123C19.1534 13.1706 18.8409 13.2998 18.4742 13.2998H13.3242V18.4498C13.3242 18.8165 13.1951 19.129 12.9367 19.3873C12.6784 19.6456 12.3659 19.7748 11.9992 19.7748C11.6326 19.7748 11.3201 19.6456 11.0617 19.3873C10.8034 19.129 10.6742 18.8165 10.6742 18.4498V13.2998Z" fill="#D9D9D9"/>
</g>
</svg>
