<svg width="21" height="20" viewBox="0 0 21 20" fill="none" xmlns="http://www.w3.org/2000/svg">
<path d="M16.85 2.5H4.35001C4.01849 2.5 3.70054 2.6317 3.46612 2.86612C3.2317 3.10054 3.10001 3.41848 3.10001 3.75V16.25C3.10001 16.5815 3.2317 16.8995 3.46612 17.1339C3.70054 17.3683 4.01849 17.5 4.35001 17.5H16.85C17.1815 17.5 17.4995 17.3683 17.7339 17.1339C17.9683 16.8995 18.1 16.5815 18.1 16.25V3.75C18.1 3.41848 17.9683 3.10054 17.7339 2.86612C17.4995 2.6317 17.1815 2.5 16.85 2.5ZM7.65782 8.93281C7.71586 8.8747 7.78479 8.8286 7.86067 8.79715C7.93654 8.7657 8.01787 8.74951 8.10001 8.74951C8.18214 8.74951 8.26347 8.7657 8.33934 8.79715C8.41522 8.8286 8.48415 8.8747 8.54219 8.93281L9.97501 10.3664V5.625C9.97501 5.45924 10.0409 5.30027 10.1581 5.18306C10.2753 5.06585 10.4342 5 10.6 5C10.7658 5 10.9247 5.06585 11.0419 5.18306C11.1592 5.30027 11.225 5.45924 11.225 5.625V10.3664L12.6578 8.93281C12.7159 8.87474 12.7848 8.82868 12.8607 8.79725C12.9366 8.76583 13.0179 8.74965 13.1 8.74965C13.1821 8.74965 13.2634 8.76583 13.3393 8.79725C13.4152 8.82868 13.4841 8.87474 13.5422 8.93281C13.6003 8.99088 13.6463 9.05982 13.6778 9.13569C13.7092 9.21156 13.7254 9.29288 13.7254 9.375C13.7254 9.45712 13.7092 9.53844 13.6778 9.61431C13.6463 9.69018 13.6003 9.75912 13.5422 9.81719L11.0422 12.3172C10.9841 12.3753 10.9152 12.4214 10.8393 12.4529C10.7635 12.4843 10.6821 12.5005 10.6 12.5005C10.5179 12.5005 10.4365 12.4843 10.3607 12.4529C10.2848 12.4214 10.2159 12.3753 10.1578 12.3172L7.65782 9.81719C7.59971 9.75914 7.55361 9.69021 7.52216 9.61434C7.4907 9.53846 7.47451 9.45713 7.47451 9.375C7.47451 9.29287 7.4907 9.21154 7.52216 9.13566C7.55361 9.05979 7.59971 8.99086 7.65782 8.93281ZM16.85 16.25H4.35001V13.125H6.59141L8.10001 14.6344C8.2158 14.7507 8.35352 14.8429 8.50519 14.9057C8.65685 14.9684 8.81946 15.0005 8.9836 15H12.2164C12.3806 15.0005 12.5433 14.9684 12.695 14.9055C12.8467 14.8426 12.9844 14.7502 13.1 14.6336L14.6086 13.125H16.85V16.25Z" fill="#D9D9D9"/>
</svg>
