<svg width="24" height="42" viewBox="0 0 24 42" fill="none" xmlns="http://www.w3.org/2000/svg">
<path d="M23.375 2.25001V39.75C23.3753 40.1211 23.2655 40.4839 23.0595 40.7925C22.8535 41.1011 22.5605 41.3416 22.2177 41.4837C21.8749 41.6257 21.4977 41.6628 21.1338 41.5904C20.7699 41.5179 20.4357 41.3391 20.1734 41.0766L1.42345 22.3266C1.24912 22.1524 1.11082 21.9456 1.01646 21.718C0.922103 21.4904 0.873535 21.2464 0.873535 21C0.873535 20.7536 0.922103 20.5096 1.01646 20.282C1.11082 20.0544 1.24912 19.8476 1.42345 19.6734L20.1734 0.923449C20.4357 0.660928 20.7699 0.482114 21.1338 0.409644C21.4977 0.337175 21.8749 0.374309 22.2177 0.516344C22.5605 0.65838 22.8535 0.898932 23.0595 1.20755C23.2655 1.51616 23.3753 1.87896 23.375 2.25001Z" fill="#D9D9D9"/>
</svg>
