<svg width="18" height="18" viewBox="0 0 18 18" fill="none" xmlns="http://www.w3.org/2000/svg">
<path d="M8.99363 13.55C8.86423 13.55 8.74374 13.524 8.63214 13.472C8.52056 13.4199 8.42128 13.3484 8.33429 13.2574L4.58289 9.50601C4.43254 9.36163 4.35696 9.18593 4.35615 8.97892C4.35533 8.77193 4.43642 8.58918 4.59944 8.43069C4.76398 8.27627 4.94357 8.20373 5.13823 8.21307C5.33288 8.22244 5.50742 8.30433 5.66186 8.45874L8.24287 11.0654V0.757094C8.24287 0.550819 8.31583 0.373075 8.46175 0.223858C8.60765 0.0746194 8.78483 0 8.99328 0C9.20175 0 9.38218 0.0746194 9.53457 0.223858C9.68696 0.373075 9.76315 0.550819 9.76315 0.757094V11.0654L12.3698 8.45874C12.5131 8.30838 12.6849 8.23279 12.8851 8.23197C13.0853 8.23116 13.2697 8.30797 13.4383 8.46239C13.5972 8.62088 13.6731 8.80112 13.6658 9.00311C13.6584 9.20507 13.5775 9.38327 13.4231 9.53771L9.67173 13.2574C9.57224 13.3484 9.4667 13.4199 9.35512 13.472C9.24352 13.524 9.12302 13.55 8.99363 13.55ZM2.66223 18C2.12933 18 1.67919 17.8147 1.31183 17.4442C0.944437 17.0736 0.760742 16.6221 0.760742 16.0895V14.9972C0.760742 14.7868 0.834716 14.607 0.982666 14.4578C1.13061 14.3086 1.30882 14.234 1.51727 14.234C1.72166 14.234 1.90005 14.3086 2.05244 14.4578C2.20483 14.607 2.28102 14.7868 2.28102 14.9972V16.0895C2.28102 16.1871 2.32167 16.2765 2.40296 16.3578C2.48424 16.4391 2.57365 16.4797 2.6712 16.4797H15.3287C15.4263 16.4797 15.5157 16.4391 15.597 16.3578C15.6783 16.2765 15.7189 16.1871 15.7189 16.0895V14.9972C15.7189 14.7868 15.7929 14.607 15.9408 14.4578C16.0888 14.3086 16.267 14.234 16.4754 14.234C16.6798 14.234 16.8582 14.3086 17.0106 14.4578C17.163 14.607 17.2392 14.7868 17.2392 14.9972V16.0895C17.2392 16.6221 17.0538 17.0736 16.683 17.4442C16.3122 17.8147 15.8603 18 15.3275 18H2.66223Z" fill="#D9D9D9"/>
</svg>
