<svg width="26" height="20" viewBox="0 0 26 20" fill="none" xmlns="http://www.w3.org/2000/svg">
<path d="M7.81836 3.18182V9.09091H16.5326L13.5394 6.09716C13.3761 5.92528 13.2864 5.69642 13.2894 5.45937C13.2925 5.22231 13.388 4.99582 13.5556 4.82818C13.7233 4.66054 13.9498 4.56502 14.1868 4.56199C14.4239 4.55895 14.6527 4.64864 14.8246 4.81193L19.3701 9.35739C19.5404 9.52786 19.6361 9.759 19.6361 10C19.6361 10.241 19.5404 10.4721 19.3701 10.6426L14.8246 15.1881C14.6527 15.3514 14.4239 15.441 14.1868 15.438C13.9498 15.435 13.7233 15.3395 13.5556 15.1718C13.388 15.0042 13.2925 14.7777 13.2894 14.5406C13.2864 14.3036 13.3761 14.0747 13.5394 13.9028L16.5326 10.9091H7.81836V16.8182C7.81926 17.6618 8.15478 18.4706 8.75129 19.0671C9.3478 19.6636 10.1566 19.9991 11.0002 20H22.8184C23.662 19.9991 24.4707 19.6636 25.0672 19.0671C25.6638 18.4706 25.9993 17.6618 26.0002 16.8182V3.18182C25.9993 2.33822 25.6638 1.52944 25.0672 0.93293C24.4707 0.336419 23.662 0.000902401 22.8184 0H11.0002C10.1566 0.000902401 9.3478 0.336419 8.75129 0.93293C8.15478 1.52944 7.81926 2.33822 7.81836 3.18182Z" fill="#D9D9D9"/>
<path d="M1.45401 9.09082C1.21291 9.09082 0.981676 9.1866 0.811188 9.35709C0.640701 9.52757 0.544922 9.75881 0.544922 9.99991C0.544922 10.241 0.640701 10.4722 0.811188 10.6427C0.981676 10.8132 1.21291 10.909 1.45401 10.909H7.81765V9.09082H1.45401Z" fill="#D9D9D9"/>
</svg>
