<svg width="50" height="36" viewBox="0 0 50 36" fill="none" xmlns="http://www.w3.org/2000/svg">
<rect x="1.04541" y="0.5" width="48.4545" height="35" rx="17.5" stroke="#6D6D6D"/>
<path d="M19.8182 11.1818V17.0909H28.5324L25.5392 14.0972C25.3759 13.9253 25.2862 13.6964 25.2893 13.4594C25.2923 13.2223 25.3878 12.9958 25.5554 12.8282C25.7231 12.6605 25.9496 12.565 26.1866 12.562C26.4237 12.559 26.6526 12.6486 26.8244 12.8119L31.3699 17.3574C31.5402 17.5279 31.6359 17.759 31.6359 18C31.6359 18.241 31.5402 18.4721 31.3699 18.6426L26.8244 23.1881C26.6526 23.3514 26.4237 23.441 26.1866 23.438C25.9496 23.435 25.7231 23.3395 25.5554 23.1718C25.3878 23.0042 25.2923 22.7777 25.2893 22.5406C25.2862 22.3036 25.3759 22.0747 25.5392 21.9028L28.5324 18.9091H19.8182V24.8182C19.8191 25.6618 20.1546 26.4706 20.7511 27.0671C21.3476 27.6636 22.1564 27.9991 23 28H34.8182C35.6618 27.9991 36.4706 27.6636 37.0671 27.0671C37.6636 26.4706 37.9991 25.6618 38 24.8182V11.1818C37.9991 10.3382 37.6636 9.52944 37.0671 8.93293C36.4706 8.33642 35.6618 8.0009 34.8182 8H23C22.1564 8.0009 21.3476 8.33642 20.7511 8.93293C20.1546 9.52944 19.8191 10.3382 19.8182 11.1818Z" fill="#D9D9D9"/>
<path d="M13.4545 17.0908C13.2134 17.0908 12.9822 17.1866 12.8117 17.3571C12.6412 17.5276 12.5454 17.7588 12.5454 17.9999C12.5454 18.241 12.6412 18.4722 12.8117 18.6427C12.9822 18.8132 13.2134 18.909 13.4545 18.909H19.8181V17.0908H13.4545Z" fill="#D9D9D9"/>
</svg>
