<svg width="24" height="24" viewBox="0 0 24 24" fill="none" xmlns="http://www.w3.org/2000/svg">
<mask id="mask0_1775_7146" style="mask-type:alpha" maskUnits="userSpaceOnUse" x="0" y="0" width="24" height="24">
<rect width="24" height="24" fill="#D9D9D9"/>
</mask>
<g mask="url(#mask0_1775_7146)">
<path d="M12.0246 13.85L7.24961 18.65C6.98294 18.9167 6.66628 19.0458 6.29961 19.0375C5.93294 19.0292 5.61628 18.8917 5.34961 18.625C5.09961 18.3583 4.97878 18.05 4.98711 17.7C4.99544 17.35 5.12461 17.0417 5.37461 16.775L10.1246 12L5.34961 7.17499C5.09961 6.90832 4.97461 6.59999 4.97461 6.24999C4.97461 5.89999 5.09961 5.59165 5.34961 5.32499C5.61628 5.05832 5.93294 4.92082 6.29961 4.91249C6.66628 4.90415 6.98294 5.03332 7.24961 5.29999L12.0246 10.1L16.7496 5.29999C17.0163 5.03332 17.3329 4.90415 17.6996 4.91249C18.0663 4.92082 18.3829 5.05832 18.6496 5.32499C18.8996 5.59165 19.0204 5.89999 19.0121 6.24999C19.0038 6.59999 18.8746 6.90832 18.6246 7.17499L13.8746 12L18.6246 16.775C18.8746 17.025 19.0038 17.3292 19.0121 17.6875C19.0204 18.0458 18.8996 18.3583 18.6496 18.625C18.3829 18.8917 18.0663 19.0292 17.6996 19.0375C17.3329 19.0458 17.0163 18.9167 16.7496 18.65L12.0246 13.85Z" fill="#6D6D6D"/>
</g>
</svg>
