<svg width="19" height="16" viewBox="0 0 19 16" fill="none" xmlns="http://www.w3.org/2000/svg">
<path d="M9.31015 16C9.09892 16 8.88393 15.9623 8.66517 15.8868C8.4464 15.8114 8.25404 15.6907 8.08808 15.5248L6.52655 14.099C4.92731 12.6355 3.48271 11.1834 2.19275 9.74257C0.902791 8.30174 0.257812 6.71381 0.257812 4.97878C0.257812 3.56058 0.73306 2.37624 1.68355 1.42574C2.63405 0.475248 3.8184 0 5.2366 0C6.03622 0 6.79058 0.169731 7.49968 0.509194C8.20878 0.848656 8.81227 1.31259 9.31015 1.90099C9.80802 1.31259 10.4115 0.848656 11.1206 0.509194C11.8297 0.169731 12.5841 0 13.3837 0C14.8019 0 15.9862 0.475248 16.9367 1.42574C17.8872 2.37624 18.3625 3.56058 18.3625 4.97878C18.3625 6.71381 17.7213 8.30552 16.4389 9.75389C15.1564 11.2023 13.7005 12.6582 12.0711 14.1216L10.5322 15.5248C10.3663 15.6907 10.1739 15.8114 9.95512 15.8868C9.73636 15.9623 9.52137 16 9.31015 16Z" fill="#D9D9D9"/>
</svg>
