<svg width="24" height="24" viewBox="0 0 24 24" fill="none" xmlns="http://www.w3.org/2000/svg">
<path d="M12.0001 20C11.7889 20 11.5739 19.9623 11.3551 19.8868C11.1363 19.8114 10.944 19.6907 10.778 19.5248L9.21649 18.099C7.61725 16.6355 6.17265 15.1834 4.88269 13.7426C3.59273 12.3017 2.94775 10.7138 2.94775 8.97878C2.94775 7.56058 3.423 6.37624 4.3735 5.42574C5.32399 4.47525 6.50834 4 7.92654 4C8.72616 4 9.48052 4.16973 10.1896 4.50919C10.8987 4.84866 11.5022 5.31259 12.0001 5.90099C12.498 5.31259 13.1015 4.84866 13.8106 4.50919C14.5197 4.16973 15.274 4 16.0736 4C17.4918 4 18.6762 4.47525 19.6267 5.42574C20.5772 6.37624 21.0524 7.56058 21.0524 8.97878C21.0524 10.7138 20.4112 12.3055 19.1288 13.7539C17.8464 15.2023 16.3905 16.6582 14.761 18.1216L13.2222 19.5248C13.0562 19.6907 12.8638 19.8114 12.6451 19.8868C12.4263 19.9623 12.2113 20 12.0001 20Z" fill="#D9D9D9"/>
</svg>
