<svg width="45" height="36" viewBox="0 0 45 36" fill="none" xmlns="http://www.w3.org/2000/svg">
<rect x="1" y="0.5" width="43" height="35" rx="17.5" stroke="#6D6D6D"/>
<path d="M18.6916 21.1249C21.879 21.1249 24.5415 23.5124 24.8915 26.6873C24.9165 26.8623 24.854 27.0373 24.7415 27.1748C24.629 27.3123 24.4415 27.3748 24.2665 27.3748H13.1167C13.0287 27.3755 12.9417 27.3568 12.8618 27.32C12.7819 27.2833 12.711 27.2295 12.6542 27.1623C12.5968 27.0958 12.5539 27.0182 12.5281 26.9343C12.5023 26.8504 12.4941 26.762 12.5042 26.6748C12.8292 23.5124 15.5041 21.1249 18.6916 21.1249ZM18.7491 12.3751C19.7436 12.3751 20.6974 12.7701 21.4007 13.4734C22.1039 14.1766 22.499 15.1305 22.499 16.125C22.499 17.1195 22.1039 18.0734 21.4007 18.7766C20.6974 19.4799 19.7436 19.8749 18.7491 19.8749C17.7545 19.8749 16.8007 19.4799 16.0975 18.7766C15.3942 18.0734 14.9991 17.1195 14.9991 16.125C14.9991 15.1305 15.3942 14.1766 16.0975 13.4734C16.8007 12.7701 17.7545 12.3751 18.7491 12.3751ZM28.1239 8.62512C28.2897 8.62512 28.4486 8.69097 28.5659 8.80818C28.6831 8.92539 28.7489 9.08435 28.7489 9.25011V12.3751H31.8739C32.03 12.3748 32.1807 12.433 32.2961 12.5382C32.4115 12.6434 32.4833 12.788 32.4974 12.9436C32.5116 13.0991 32.4669 13.2543 32.3723 13.3786C32.2777 13.5029 32.14 13.5872 31.9864 13.615L31.8739 13.625H28.7489V16.75C28.749 16.8963 28.6977 17.0379 28.604 17.1503C28.5104 17.2627 28.3803 17.3386 28.2364 17.365L28.1239 17.375C27.9582 17.375 27.7992 17.3091 27.682 17.1919C27.5648 17.0747 27.4989 16.9157 27.4989 16.75V13.625H24.374C24.2178 13.6253 24.0672 13.5671 23.9518 13.4619C23.8363 13.3567 23.7645 13.2121 23.7504 13.0565C23.7363 12.901 23.7809 12.7458 23.8755 12.6215C23.9701 12.4972 24.1078 12.4129 24.2615 12.3851L24.374 12.3751H27.4989V9.25011C27.4989 9.10383 27.5501 8.96217 27.6438 8.84979C27.7374 8.73742 27.8675 8.66145 28.0114 8.63512L28.1239 8.62512Z" fill="#D9D9D9"/>
</svg>
