<svg width="20" height="18" viewBox="0 0 20 18" fill="none" xmlns="http://www.w3.org/2000/svg">
<path d="M6.48014 12C9.54014 12 12.0961 14.292 12.4321 17.34C12.4561 17.508 12.3961 17.676 12.2881 17.808C12.1801 17.94 12.0001 18 11.8321 18H1.12814C1.04371 18.0006 0.960168 17.9827 0.883441 17.9474C0.806713 17.9121 0.738675 17.8605 0.684144 17.796C0.629094 17.7322 0.587875 17.6576 0.56309 17.5771C0.538305 17.4965 0.530492 17.4117 0.540144 17.328C0.852144 14.292 3.42014 12 6.48014 12ZM6.53534 3.6C7.49012 3.6 8.40579 3.97928 9.08092 4.65441C9.75605 5.32954 10.1353 6.24522 10.1353 7.19999C10.1353 8.15477 9.75605 9.07045 9.08092 9.74558C8.40579 10.4207 7.49012 10.8 6.53534 10.8C5.58056 10.8 4.66489 10.4207 3.98976 9.74558C3.31463 9.07045 2.93534 8.15477 2.93534 7.19999C2.93534 6.24522 3.31463 5.32954 3.98976 4.65441C4.66489 3.97928 5.58056 3.6 6.53534 3.6ZM15.5353 0C15.6945 0 15.8471 0.0632141 15.9596 0.175736C16.0721 0.288258 16.1353 0.44087 16.1353 0.599999V3.6H19.1353C19.2853 3.59972 19.4299 3.65559 19.5407 3.75661C19.6515 3.85762 19.7204 3.99646 19.734 4.14578C19.7475 4.2951 19.7047 4.44409 19.6139 4.56339C19.5231 4.6827 19.3909 4.76368 19.2433 4.7904L19.1353 4.8H16.1353V7.79999C16.1354 7.94042 16.0862 8.07642 15.9963 8.1843C15.9064 8.29219 15.7815 8.36512 15.6433 8.39039L15.5353 8.39999C15.3762 8.39999 15.2236 8.33678 15.1111 8.22426C14.9985 8.11173 14.9353 7.95912 14.9353 7.79999V4.8H11.9353C11.7854 4.80027 11.6408 4.7444 11.53 4.64339C11.4192 4.54237 11.3502 4.40353 11.3367 4.25421C11.3231 4.10489 11.366 3.95591 11.4568 3.8366C11.5476 3.71729 11.6798 3.63631 11.8273 3.6096L11.9353 3.6H14.9353V0.599999C14.9353 0.459569 14.9845 0.323571 15.0744 0.215689C15.1643 0.107807 15.2892 0.0348775 15.4273 0.00959999L15.5353 0Z" fill="#E5E5E5"/>
</svg>
