<svg width="76" height="38" viewBox="0 0 76 38" fill="none" xmlns="http://www.w3.org/2000/svg">
<rect x="1.03613" y="0.5" width="74.3094" height="37" rx="18.5" stroke="#6D6D6D"/>
<path d="M17.4801 22C20.5401 22 23.0961 24.292 23.4321 27.34C23.4561 27.508 23.3961 27.676 23.2881 27.808C23.1801 27.94 23.0001 28 22.8321 28H12.1281C12.0437 28.0006 11.9602 27.9827 11.8834 27.9474C11.8067 27.9121 11.7387 27.8605 11.6841 27.796C11.6291 27.7322 11.5879 27.6576 11.5631 27.5771C11.5383 27.4965 11.5305 27.4117 11.5401 27.328C11.8521 24.292 14.4201 22 17.4801 22ZM17.5353 13.6C18.4901 13.6 19.4058 13.9793 20.0809 14.6544C20.7561 15.3295 21.1353 16.2452 21.1353 17.2C21.1353 18.1548 20.7561 19.0704 20.0809 19.7456C19.4058 20.4207 18.4901 20.8 17.5353 20.8C16.5806 20.8 15.6649 20.4207 14.9898 19.7456C14.3146 19.0704 13.9353 18.1548 13.9353 17.2C13.9353 16.2452 14.3146 15.3295 14.9898 14.6544C15.6649 13.9793 16.5806 13.6 17.5353 13.6ZM26.5353 10C26.6945 10 26.8471 10.0632 26.9596 10.1757C27.0721 10.2883 27.1353 10.4409 27.1353 10.6V13.6H30.1353C30.2853 13.5997 30.4299 13.6556 30.5407 13.7566C30.6515 13.8576 30.7204 13.9965 30.734 14.1458C30.7475 14.2951 30.7047 14.4441 30.6139 14.5634C30.5231 14.6827 30.3909 14.7637 30.2433 14.7904L30.1353 14.8H27.1353V17.8C27.1354 17.9404 27.0862 18.0764 26.9963 18.1843C26.9064 18.2922 26.7815 18.3651 26.6433 18.3904L26.5353 18.4C26.3762 18.4 26.2236 18.3368 26.1111 18.2243C25.9985 18.1117 25.9353 17.9591 25.9353 17.8V14.8H22.9353C22.7854 14.8003 22.6408 14.7444 22.53 14.6434C22.4192 14.5424 22.3502 14.4035 22.3367 14.2542C22.3231 14.1049 22.366 13.9559 22.4568 13.8366C22.5476 13.7173 22.6798 13.6363 22.8273 13.6096L22.9353 13.6H25.9353V10.6C25.9353 10.4596 25.9845 10.3236 26.0744 10.2157C26.1643 10.1078 26.2892 10.0349 26.4273 10.0096L26.5353 10Z" fill="#E5E5E5"/>
<path d="M44.541 13.0625V24.5H43.0957V14.8672L40.1816 15.9297V14.625L44.3145 13.0625H44.541ZM50.6191 19.0859L49.4629 18.7891L50.0332 13.125H55.8691V14.4609H51.2598L50.916 17.5547C51.1243 17.4349 51.3874 17.3229 51.7051 17.2188C52.028 17.1146 52.3978 17.0625 52.8145 17.0625C53.3405 17.0625 53.8118 17.1536 54.2285 17.3359C54.6452 17.513 54.9993 17.7682 55.291 18.1016C55.5879 18.4349 55.8145 18.8359 55.9707 19.3047C56.127 19.7734 56.2051 20.2969 56.2051 20.875C56.2051 21.4219 56.1296 21.9245 55.9785 22.3828C55.8327 22.8411 55.6113 23.2422 55.3145 23.5859C55.0176 23.9245 54.6426 24.1875 54.1895 24.375C53.7415 24.5625 53.2129 24.6562 52.6035 24.6562C52.1452 24.6562 51.7103 24.5938 51.2988 24.4688C50.8926 24.3385 50.528 24.1432 50.2051 23.8828C49.8874 23.6172 49.627 23.2891 49.4238 22.8984C49.2259 22.5026 49.1009 22.0391 49.0488 21.5078H50.4238C50.4863 21.9349 50.6113 22.2943 50.7988 22.5859C50.9863 22.8776 51.2311 23.099 51.5332 23.25C51.8405 23.3958 52.1973 23.4688 52.6035 23.4688C52.9473 23.4688 53.252 23.4089 53.5176 23.2891C53.7832 23.1693 54.0072 22.9974 54.1895 22.7734C54.3717 22.5495 54.5098 22.2786 54.6035 21.9609C54.7025 21.6432 54.752 21.2865 54.752 20.8906C54.752 20.5312 54.7025 20.1979 54.6035 19.8906C54.5046 19.5833 54.3561 19.3151 54.1582 19.0859C53.9655 18.8568 53.7285 18.6797 53.4473 18.5547C53.166 18.4245 52.8431 18.3594 52.4785 18.3594C51.9941 18.3594 51.627 18.4245 51.377 18.5547C51.1322 18.6849 50.8796 18.862 50.6191 19.0859ZM64.9316 17.9062V19.6406C64.9316 20.5729 64.8483 21.3594 64.6816 22C64.515 22.6406 64.2754 23.1562 63.9629 23.5469C63.6504 23.9375 63.2728 24.2214 62.8301 24.3984C62.3926 24.5703 61.8978 24.6562 61.3457 24.6562C60.9082 24.6562 60.5046 24.6016 60.1348 24.4922C59.765 24.3828 59.4316 24.2083 59.1348 23.9688C58.8431 23.724 58.5931 23.4062 58.3848 23.0156C58.1764 22.625 58.0176 22.151 57.9082 21.5938C57.7988 21.0365 57.7441 20.3854 57.7441 19.6406V17.9062C57.7441 16.974 57.8275 16.1927 57.9941 15.5625C58.166 14.9323 58.4082 14.4271 58.7207 14.0469C59.0332 13.6615 59.4082 13.3854 59.8457 13.2188C60.2884 13.0521 60.7832 12.9688 61.3301 12.9688C61.7728 12.9688 62.179 13.0234 62.5488 13.1328C62.9238 13.237 63.2572 13.4062 63.5488 13.6406C63.8405 13.8698 64.0879 14.1771 64.291 14.5625C64.4993 14.9427 64.6582 15.4089 64.7676 15.9609C64.877 16.513 64.9316 17.1615 64.9316 17.9062ZM63.4785 19.875V17.6641C63.4785 17.1536 63.4473 16.7057 63.3848 16.3203C63.3275 15.9297 63.2415 15.5964 63.127 15.3203C63.0124 15.0443 62.8665 14.8203 62.6895 14.6484C62.5176 14.4766 62.3171 14.3516 62.0879 14.2734C61.8639 14.1901 61.6113 14.1484 61.3301 14.1484C60.9863 14.1484 60.6816 14.2135 60.416 14.3438C60.1504 14.4688 59.9264 14.6693 59.7441 14.9453C59.5671 15.2214 59.4316 15.5833 59.3379 16.0312C59.2441 16.4792 59.1973 17.0234 59.1973 17.6641V19.875C59.1973 20.3854 59.2259 20.8359 59.2832 21.2266C59.3457 21.6172 59.4368 21.9557 59.5566 22.2422C59.6764 22.5234 59.8223 22.7552 59.9941 22.9375C60.166 23.1198 60.3639 23.2552 60.5879 23.3438C60.8171 23.4271 61.0697 23.4688 61.3457 23.4688C61.6999 23.4688 62.0098 23.401 62.2754 23.2656C62.541 23.1302 62.7624 22.9193 62.9395 22.6328C63.1217 22.3411 63.2572 21.9688 63.3457 21.5156C63.4342 21.0573 63.4785 20.5104 63.4785 19.875Z" fill="#E5E5E5"/>
</svg>
