<svg width="36" height="36" viewBox="0 0 36 36" fill="none" xmlns="http://www.w3.org/2000/svg">
<g clip-path="url(#clip0_1665_11506)">
<path d="M18.0008 21.1645C19.7446 21.1645 21.1719 19.7441 21.1719 17.9934C21.1719 17.3043 20.9469 16.6645 20.5742 16.1441C19.9977 15.3496 19.0625 14.8223 18.0078 14.8223C16.9532 14.8223 16.018 15.3426 15.4414 16.1441C15.0688 16.6645 14.8438 17.3043 14.8438 17.9934C14.8367 19.7441 16.2571 21.1645 18.0008 21.1645Z" fill="#D9D9D9"/>
<path d="M24.9187 14.1258V11.468V11.0742H24.525L21.8672 11.0813L21.8812 14.1328L24.9187 14.1258Z" fill="#D9D9D9"/>
<path d="M22.9219 17.9996C22.9219 20.7137 20.7141 22.9215 18 22.9215C15.2859 22.9215 13.0781 20.7137 13.0781 17.9996C13.0781 17.3457 13.2117 16.7199 13.4438 16.1504H10.7578V23.5191C10.7578 24.4684 11.5312 25.2418 12.4805 25.2418H23.5195C24.4688 25.2418 25.2422 24.4684 25.2422 23.5191V16.1504H22.5563C22.7953 16.7199 22.9219 17.3457 22.9219 17.9996Z" fill="#D9D9D9"/>
<path d="M18 0C8.05781 0 0 8.05781 0 18C0 27.9422 8.05781 36 18 36C27.9422 36 36 27.9422 36 18C36 8.05781 27.9422 0 18 0ZM27 16.1508V23.5195C27 25.4391 25.4391 27 23.5195 27H12.4805C10.5609 27 9 25.4391 9 23.5195V16.1508V12.4734C9 10.5539 10.5609 8.99297 12.4805 8.99297H23.5195C25.4391 8.99297 27 10.5539 27 12.4734V16.1508Z" fill="#D9D9D9"/>
</g>
<defs>
<clipPath id="clip0_1665_11506">
<rect width="36" height="36" fill="white"/>
</clipPath>
</defs>
</svg>
