<svg width="25" height="24" viewBox="0 0 25 24" fill="none" xmlns="http://www.w3.org/2000/svg">
<g clip-path="url(#clip0_716_1360)">
<path d="M12.5002 14.1095C13.6627 14.1095 14.6143 13.1626 14.6143 11.9954C14.6143 11.536 14.4643 11.1095 14.2158 10.7626C13.8315 10.2329 13.208 9.88135 12.5049 9.88135C11.8018 9.88135 11.1783 10.2282 10.794 10.7626C10.5455 11.1095 10.3955 11.536 10.3955 11.9954C10.3908 13.1626 11.3377 14.1095 12.5002 14.1095Z" fill="#D9D9D9"/>
<path d="M17.1125 9.41719V7.64531V7.38281H16.85L15.0781 7.3875L15.0875 9.42188L17.1125 9.41719Z" fill="#D9D9D9"/>
<path d="M15.7812 11.9999C15.7812 13.8093 14.3094 15.2812 12.5 15.2812C10.6906 15.2812 9.21875 13.8093 9.21875 11.9999C9.21875 11.564 9.30781 11.1468 9.4625 10.7671H7.67188V15.6796C7.67188 16.3124 8.1875 16.828 8.82031 16.828H16.1797C16.8125 16.828 17.3281 16.3124 17.3281 15.6796V10.7671H15.5375C15.6969 11.1468 15.7812 11.564 15.7812 11.9999Z" fill="#D9D9D9"/>
<path d="M12.5 0C5.87188 0 0.5 5.37188 0.5 12C0.5 18.6281 5.87188 24 12.5 24C19.1281 24 24.5 18.6281 24.5 12C24.5 5.37188 19.1281 0 12.5 0ZM18.5 10.7672V15.6797C18.5 16.9594 17.4594 18 16.1797 18H8.82031C7.54063 18 6.5 16.9594 6.5 15.6797V10.7672V8.31562C6.5 7.03594 7.54063 5.99531 8.82031 5.99531H16.1797C17.4594 5.99531 18.5 7.03594 18.5 8.31562V10.7672Z" fill="#D9D9D9"/>
</g>
<defs>
<clipPath id="clip0_716_1360">
<rect width="24" height="24" fill="white" transform="translate(0.5)"/>
</clipPath>
</defs>
</svg>
