<svg width="56" height="36" viewBox="0 0 56 36" fill="none" xmlns="http://www.w3.org/2000/svg">
<rect x="0.333333" y="0.333333" width="54.7333" height="35.3333" rx="17.6667" stroke="#6D6D6D" stroke-width="0.666667"/>
<path d="M23.4188 10C21.5918 10 20.0055 11.0411 19.2 12.5703C18.3945 11.0411 16.8083 10 14.9813 10C12.3409 10 10.2 12.1749 10.2 14.8571C10.2 21.4286 19.2 26 19.2 26C19.2 26 28.2 21.4286 28.2 14.8571C28.2 12.1749 26.0591 10 23.4188 10Z" fill="#D9D9D9"/>
<path d="M43.6922 12.1094H43.8172V13.3359H43.6922C42.9266 13.3359 42.2859 13.4609 41.7703 13.7109C41.2547 13.9557 40.8458 14.2865 40.5438 14.7031C40.2417 15.1146 40.0229 15.5781 39.8875 16.0938C39.7573 16.6094 39.6922 17.1328 39.6922 17.6641V19.3359C39.6922 19.8411 39.7521 20.2891 39.8719 20.6797C39.9917 21.0651 40.1557 21.3906 40.3641 21.6562C40.5724 21.9219 40.8068 22.1224 41.0672 22.2578C41.3328 22.3932 41.6089 22.4609 41.8953 22.4609C42.2287 22.4609 42.5255 22.3984 42.7859 22.2734C43.0464 22.1432 43.2651 21.9635 43.4422 21.7344C43.6245 21.5 43.7625 21.224 43.8563 20.9062C43.95 20.5885 43.9969 20.2396 43.9969 19.8594C43.9969 19.5208 43.9552 19.1953 43.8719 18.8828C43.7886 18.5651 43.6609 18.2839 43.4891 18.0391C43.3172 17.7891 43.1011 17.5938 42.8406 17.4531C42.5854 17.3073 42.2807 17.2344 41.9266 17.2344C41.5255 17.2344 41.1505 17.3333 40.8016 17.5312C40.4578 17.724 40.174 17.9792 39.95 18.2969C39.7313 18.6094 39.6063 18.9505 39.575 19.3203L38.8094 19.3125C38.8823 18.7292 39.0177 18.2318 39.2156 17.8203C39.4188 17.4036 39.6688 17.0651 39.9656 16.8047C40.2677 16.5391 40.6037 16.3464 40.9734 16.2266C41.3484 16.1016 41.7443 16.0391 42.1609 16.0391C42.7287 16.0391 43.2182 16.1458 43.6297 16.3594C44.0412 16.5729 44.3797 16.8594 44.6453 17.2188C44.9109 17.5729 45.1063 17.974 45.2313 18.4219C45.3615 18.8646 45.4266 19.3203 45.4266 19.7891C45.4266 20.3255 45.3511 20.8281 45.2 21.2969C45.049 21.7656 44.8224 22.1771 44.5203 22.5312C44.2234 22.8854 43.8563 23.1615 43.4188 23.3594C42.9813 23.5573 42.4734 23.6562 41.8953 23.6562C41.2807 23.6562 40.7443 23.5312 40.2859 23.2812C39.8276 23.026 39.4474 22.6875 39.1453 22.2656C38.8432 21.8438 38.6167 21.375 38.4656 20.8594C38.3146 20.3438 38.2391 19.8203 38.2391 19.2891V18.6094C38.2391 17.8073 38.3198 17.0208 38.4813 16.25C38.6427 15.4792 38.9214 14.7812 39.3172 14.1562C39.7182 13.5312 40.2729 13.0339 40.9813 12.6641C41.6896 12.2943 42.5932 12.1094 43.6922 12.1094Z" fill="#D9D9D9"/>
</svg>
