<svg width="24" height="24" viewBox="0 0 24 24" fill="none" xmlns="http://www.w3.org/2000/svg">
<mask id="mask0_2054_15385" style="mask-type:alpha" maskUnits="userSpaceOnUse" x="0" y="0" width="24" height="24">
<rect width="24" height="24" fill="#D9D9D9"/>
</mask>
<g mask="url(#mask0_2054_15385)">
<path d="M5.54978 10.5C5.34978 10.4167 5.16228 10.3292 4.98728 10.2375C4.81228 10.1458 4.63312 10.0333 4.44978 9.9L3.72478 10.125C3.50812 10.1917 3.29562 10.1833 3.08728 10.1C2.87895 10.0167 2.71645 9.88333 2.59978 9.7L2.39978 9.35C2.28312 9.15 2.24145 8.93333 2.27478 8.7C2.30812 8.46667 2.41645 8.275 2.59978 8.125L3.14978 7.65C3.11645 7.43333 3.09978 7.21667 3.09978 7C3.09978 6.78333 3.11645 6.56667 3.14978 6.35L2.59978 5.875C2.41645 5.725 2.30812 5.5375 2.27478 5.3125C2.24145 5.0875 2.28312 4.875 2.39978 4.675L2.62478 4.3C2.74145 4.11667 2.89978 3.98333 3.09978 3.9C3.29978 3.81667 3.50812 3.80833 3.72478 3.875L4.44978 4.1C4.63312 3.96667 4.81228 3.85417 4.98728 3.7625C5.16228 3.67083 5.34978 3.58333 5.54978 3.5L5.69978 2.775C5.74978 2.54167 5.86228 2.35417 6.03728 2.2125C6.21228 2.07083 6.41645 2 6.64978 2H7.04978C7.28312 2 7.48728 2.075 7.66228 2.225C7.83728 2.375 7.94978 2.56667 7.99978 2.8L8.14978 3.5C8.34978 3.58333 8.53728 3.67083 8.71228 3.7625C8.88728 3.85417 9.06645 3.96667 9.24978 4.1L9.97478 3.875C10.1915 3.80833 10.404 3.81667 10.6123 3.9C10.8206 3.98333 10.9831 4.11667 11.0998 4.3L11.2998 4.65C11.4165 4.85 11.4581 5.06667 11.4248 5.3C11.3914 5.53333 11.2831 5.725 11.0998 5.875L10.5498 6.35C10.5831 6.56667 10.5998 6.78333 10.5998 7C10.5998 7.21667 10.5831 7.43333 10.5498 7.65L11.0998 8.125C11.2831 8.275 11.3914 8.4625 11.4248 8.6875C11.4581 8.9125 11.4165 9.125 11.2998 9.325L11.0748 9.7C10.9581 9.88333 10.7998 10.0167 10.5998 10.1C10.3998 10.1833 10.1915 10.1917 9.97478 10.125L9.24978 9.9C9.06645 10.0333 8.88728 10.1458 8.71228 10.2375C8.53728 10.3292 8.34978 10.4167 8.14978 10.5L7.99978 11.225C7.94978 11.4583 7.83728 11.6458 7.66228 11.7875C7.48728 11.9292 7.28312 12 7.04978 12H6.64978C6.41645 12 6.21228 11.925 6.03728 11.775C5.86228 11.625 5.74978 11.4333 5.69978 11.2L5.54978 10.5ZM6.84978 9C7.39978 9 7.87062 8.80417 8.26228 8.4125C8.65395 8.02083 8.84978 7.55 8.84978 7C8.84978 6.45 8.65395 5.97917 8.26228 5.5875C7.87062 5.19583 7.39978 5 6.84978 5C6.29978 5 5.82895 5.19583 5.43728 5.5875C5.04562 5.97917 4.84978 6.45 4.84978 7C4.84978 7.55 5.04562 8.02083 5.43728 8.4125C5.82895 8.80417 6.29978 9 6.84978 9ZM14.3498 20.9C14.0665 20.8 13.804 20.6792 13.5623 20.5375C13.3206 20.3958 13.0831 20.2333 12.8498 20.05L11.8998 20.35C11.5998 20.45 11.2998 20.4458 10.9998 20.3375C10.6998 20.2292 10.4665 20.0333 10.2998 19.75L10.0248 19.275C9.85812 18.9917 9.79978 18.6875 9.84978 18.3625C9.89978 18.0375 10.0498 17.7667 10.2998 17.55L11.0498 16.9C11.0164 16.6 10.9998 16.3 10.9998 16C10.9998 15.7 11.0164 15.4 11.0498 15.1L10.2998 14.425C10.0498 14.2083 9.89978 13.9417 9.84978 13.625C9.79978 13.3083 9.85812 13.0083 10.0248 12.725L10.2998 12.25C10.4665 11.9667 10.6998 11.7708 10.9998 11.6625C11.2998 11.5542 11.5998 11.55 11.8998 11.65L12.8498 11.95C13.0831 11.7667 13.3206 11.6042 13.5623 11.4625C13.804 11.3208 14.0665 11.2 14.3498 11.1L14.5748 10.075C14.6414 9.75833 14.7956 9.5 15.0373 9.3C15.279 9.1 15.5665 9 15.8998 9H16.4998C16.8331 9 17.1206 9.1 17.3623 9.3C17.604 9.5 17.7581 9.75833 17.8248 10.075L18.0498 11.1C18.3331 11.2 18.5956 11.3208 18.8373 11.4625C19.079 11.6042 19.3165 11.7667 19.5498 11.95L20.4998 11.65C20.7998 11.55 21.0998 11.5542 21.3998 11.6625C21.6998 11.7708 21.9331 11.9667 22.0998 12.25L22.3748 12.725C22.5415 13.0083 22.5998 13.3125 22.5498 13.6375C22.4998 13.9625 22.3498 14.2333 22.0998 14.45L21.3498 15.1C21.3831 15.4 21.3998 15.7 21.3998 16C21.3998 16.3 21.3831 16.6 21.3498 16.9L22.0998 17.575C22.3498 17.7917 22.4998 18.0583 22.5498 18.375C22.5998 18.6917 22.5415 18.9917 22.3748 19.275L22.0998 19.75C21.9331 20.0333 21.6998 20.2292 21.3998 20.3375C21.0998 20.4458 20.7998 20.45 20.4998 20.35L19.5498 20.05C19.3165 20.2333 19.079 20.3958 18.8373 20.5375C18.5956 20.6792 18.3331 20.8 18.0498 20.9L17.8248 21.925C17.7581 22.2417 17.604 22.5 17.3623 22.7C17.1206 22.9 16.8331 23 16.4998 23H15.8998C15.5665 23 15.279 22.9 15.0373 22.7C14.7956 22.5 14.6414 22.2417 14.5748 21.925L14.3498 20.9ZM16.1998 19C17.0331 19 17.7415 18.7083 18.3248 18.125C18.9081 17.5417 19.1998 16.8333 19.1998 16C19.1998 15.1667 18.9081 14.4583 18.3248 13.875C17.7415 13.2917 17.0331 13 16.1998 13C15.3665 13 14.6581 13.2917 14.0748 13.875C13.4915 14.4583 13.1998 15.1667 13.1998 16C13.1998 16.8333 13.4915 17.5417 14.0748 18.125C14.6581 18.7083 15.3665 19 16.1998 19Z" fill="#D9D9D9"/>
</g>
</svg>
