<svg width="24" height="24" viewBox="0 0 24 24" fill="none" xmlns="http://www.w3.org/2000/svg">
<mask id="mask0_2284_6084" style="mask-type:alpha" maskUnits="userSpaceOnUse" x="0" y="0" width="24" height="24">
<rect width="24" height="24" fill="#D9D9D9"/>
</mask>
<g mask="url(#mask0_2284_6084)">
<path d="M12.0254 7.9998C12.2087 7.9998 12.3754 8.02897 12.5254 8.0873C12.6754 8.14564 12.8171 8.24147 12.9504 8.3748L17.6504 13.0748C17.9004 13.3248 18.0254 13.6331 18.0254 13.9998C18.0254 14.3665 17.9004 14.6748 17.6504 14.9248C17.4004 15.1748 17.0921 15.2998 16.7254 15.2998C16.3587 15.2998 16.0504 15.1748 15.8004 14.9248L12.0254 11.1498L8.25039 14.9248C8.00039 15.1748 7.69206 15.2998 7.32539 15.2998C6.95872 15.2998 6.65039 15.1748 6.40039 14.9248C6.15039 14.6748 6.02539 14.3665 6.02539 13.9998C6.02539 13.6331 6.15039 13.3248 6.40039 13.0748L11.1004 8.3748C11.2337 8.24147 11.3754 8.14564 11.5254 8.0873C11.6754 8.02897 11.8421 7.9998 12.0254 7.9998Z" fill="#D9D9D9"/>
</g>
</svg>
