<svg width="24" height="24" viewBox="0 0 24 24" fill="none" xmlns="http://www.w3.org/2000/svg">
<mask id="mask0_2284_9398" style="mask-type:alpha" maskUnits="userSpaceOnUse" x="0" y="0" width="24" height="24">
<rect width="24" height="24" fill="#D9D9D9"/>
</mask>
<g mask="url(#mask0_2284_9398)">
<path d="M12.0254 15.3C11.8421 15.3 11.6754 15.2708 11.5254 15.2125C11.3754 15.1542 11.2337 15.0583 11.1004 14.925L6.40039 10.225C6.15039 9.975 6.02539 9.66667 6.02539 9.3C6.02539 8.93333 6.15039 8.625 6.40039 8.375C6.65039 8.125 6.95872 8 7.32539 8C7.69206 8 8.00039 8.125 8.25039 8.375L12.0254 12.15L15.8004 8.375C16.0504 8.125 16.3587 8 16.7254 8C17.0921 8 17.4004 8.125 17.6504 8.375C17.9004 8.625 18.0254 8.93333 18.0254 9.3C18.0254 9.66667 17.9004 9.975 17.6504 10.225L12.9504 14.925C12.8171 15.0583 12.6754 15.1542 12.5254 15.2125C12.3754 15.2708 12.2087 15.3 12.0254 15.3Z" fill="#D9D9D9"/>
</g>
</svg>
