<svg width="24" height="42" viewBox="0 0 24 42" fill="none" xmlns="http://www.w3.org/2000/svg">
<path d="M22.5766 22.3266L3.82656 41.0766C3.56433 41.3391 3.23011 41.5179 2.8662 41.5904C2.50229 41.6628 2.12506 41.6257 1.78227 41.4837C1.43947 41.3416 1.14653 41.1011 0.940525 40.7925C0.734517 40.4839 0.624709 40.1211 0.625001 39.75V2.25001C0.624709 1.87896 0.734517 1.51616 0.940525 1.20755C1.14653 0.898932 1.43947 0.65838 1.78227 0.516344C2.12506 0.374309 2.50229 0.337175 2.8662 0.409644C3.23011 0.482114 3.56433 0.660928 3.82656 0.923449L22.5766 19.6734C22.7509 19.8476 22.8892 20.0544 22.9835 20.282C23.0779 20.5096 23.1265 20.7536 23.1265 21C23.1265 21.2464 23.0779 21.4904 22.9835 21.718C22.8892 21.9456 22.7509 22.1524 22.5766 22.3266Z" fill="#D9D9D9"/>
</svg>
