<svg width="58" height="36" viewBox="0 0 58 36" fill="none" xmlns="http://www.w3.org/2000/svg">
<rect x="0.733342" y="0.333333" width="56.3333" height="35.3333" rx="17.6667" stroke="#6D6D6D" stroke-width="0.666667"/>
<path d="M27.2538 17.3538L22.2538 22.3538C22.1838 22.4238 22.0947 22.4715 21.9977 22.4908C21.9006 22.5101 21.8 22.5002 21.7086 22.4623C21.6172 22.4245 21.5391 22.3603 21.4841 22.278C21.4292 22.1957 21.3999 22.099 21.4 22V19.5144C17.8313 19.7169 15.3844 22.0313 14.6975 22.7644C14.5896 22.8796 14.4482 22.9578 14.2933 22.988C14.1384 23.0181 13.978 22.9986 13.8348 22.9323C13.6916 22.866 13.573 22.7562 13.4958 22.6185C13.4187 22.4809 13.3869 22.3224 13.405 22.1657C13.6369 20.1494 14.7413 18.21 16.515 16.705C17.9881 15.455 19.7788 14.6619 21.4 14.5232V12C21.3999 11.9011 21.4292 11.8043 21.4841 11.722C21.5391 11.6397 21.6172 11.5756 21.7086 11.5377C21.8 11.4998 21.9006 11.4899 21.9977 11.5093C22.0947 11.5286 22.1838 11.5763 22.2538 11.6463L27.2538 16.6463C27.3002 16.6927 27.3371 16.7479 27.3623 16.8086C27.3874 16.8693 27.4004 16.9343 27.4004 17C27.4004 17.0657 27.3874 17.1308 27.3623 17.1915C27.3371 17.2522 27.3002 17.3073 27.2538 17.3538Z" fill="#D9D9D9"/>
<path d="M39.1734 18.0859L38.0172 17.7891L38.5875 12.125H44.4234V13.4609H39.8141L39.4703 16.5547C39.6787 16.4349 39.9417 16.3229 40.2594 16.2188C40.5823 16.1146 40.9521 16.0625 41.3688 16.0625C41.8948 16.0625 42.3662 16.1536 42.7828 16.3359C43.1995 16.513 43.5537 16.7682 43.8453 17.1016C44.1422 17.4349 44.3688 17.8359 44.525 18.3047C44.6813 18.7734 44.7594 19.2969 44.7594 19.875C44.7594 20.4219 44.6839 20.9245 44.5328 21.3828C44.387 21.8411 44.1656 22.2422 43.8688 22.5859C43.5719 22.9245 43.1969 23.1875 42.7438 23.375C42.2958 23.5625 41.7672 23.6562 41.1578 23.6562C40.6995 23.6562 40.2646 23.5938 39.8531 23.4688C39.4469 23.3385 39.0823 23.1432 38.7594 22.8828C38.4417 22.6172 38.1813 22.2891 37.9781 21.8984C37.7802 21.5026 37.6552 21.0391 37.6031 20.5078H38.9781C39.0406 20.9349 39.1656 21.2943 39.3531 21.5859C39.5406 21.8776 39.7854 22.099 40.0875 22.25C40.3948 22.3958 40.7516 22.4688 41.1578 22.4688C41.5016 22.4688 41.8063 22.4089 42.0719 22.2891C42.3375 22.1693 42.5615 21.9974 42.7438 21.7734C42.9261 21.5495 43.0641 21.2786 43.1578 20.9609C43.2568 20.6432 43.3063 20.2865 43.3063 19.8906C43.3063 19.5312 43.2568 19.1979 43.1578 18.8906C43.0589 18.5833 42.9104 18.3151 42.7125 18.0859C42.5198 17.8568 42.2828 17.6797 42.0016 17.5547C41.7203 17.4245 41.3974 17.3594 41.0328 17.3594C40.5484 17.3594 40.1813 17.4245 39.9313 17.5547C39.6865 17.6849 39.4339 17.862 39.1734 18.0859Z" fill="#D9D9D9"/>
</svg>
