<svg width="59" height="38" viewBox="0 0 59 38" fill="none" xmlns="http://www.w3.org/2000/svg">
<rect x="1.3457" y="0.5" width="56.3094" height="37" rx="18.5" stroke="#6D6D6D"/>
<path d="M21.9941 23.55C21.8647 23.55 21.7442 23.524 21.6326 23.472C21.521 23.4199 21.4218 23.3484 21.3348 23.2574L17.5834 19.506C17.433 19.3616 17.3574 19.1859 17.3566 18.9789C17.3558 18.7719 17.4369 18.5892 17.5999 18.4307C17.7645 18.2763 17.9441 18.2037 18.1387 18.2131C18.3334 18.2224 18.5079 18.3043 18.6623 18.4587L21.2434 21.0654V10.7571C21.2434 10.5508 21.3163 10.3731 21.4622 10.2239C21.6081 10.0746 21.7853 10 21.9938 10C22.2022 10 22.3827 10.0746 22.5351 10.2239C22.6874 10.3731 22.7636 10.5508 22.7636 10.7571V21.0654L25.3703 18.4587C25.5136 18.3084 25.6854 18.2328 25.8856 18.232C26.0858 18.2312 26.2702 18.308 26.4388 18.4624C26.5977 18.6209 26.6736 18.8011 26.6662 19.0031C26.6589 19.2051 26.578 19.3833 26.4236 19.5377L22.6722 23.2574C22.5727 23.3484 22.4672 23.4199 22.3556 23.472C22.244 23.524 22.1235 23.55 21.9941 23.55ZM15.6627 28C15.1298 28 14.6797 27.8147 14.3123 27.4442C13.9449 27.0736 13.7612 26.6221 13.7612 26.0895V24.9972C13.7612 24.7868 13.8352 24.607 13.9832 24.4578C14.1311 24.3086 14.3093 24.234 14.5178 24.234C14.7221 24.234 14.9005 24.3086 15.0529 24.4578C15.2053 24.607 15.2815 24.7868 15.2815 24.9972V26.0895C15.2815 26.1871 15.3222 26.2765 15.4035 26.3578C15.4847 26.4391 15.5741 26.4797 15.6717 26.4797H28.3292C28.4268 26.4797 28.5162 26.4391 28.5975 26.3578C28.6788 26.2765 28.7194 26.1871 28.7194 26.0895V24.9972C28.7194 24.7868 28.7934 24.607 28.9413 24.4578C29.0892 24.3086 29.2675 24.234 29.4759 24.234C29.6803 24.234 29.8587 24.3086 30.0111 24.4578C30.1635 24.607 30.2397 24.7868 30.2397 24.9972V26.0895C30.2397 26.6221 30.0543 27.0736 29.6835 27.4442C29.3127 27.8147 28.8608 28 28.328 28H15.6627Z" fill="#D9D9D9"/>
<path d="M44.8506 13.0625V24.5H43.4053V14.8672L40.4912 15.9297V14.625L44.624 13.0625H44.8506Z" fill="#E5E5E5"/>
</svg>
