<svg width="56" height="36" viewBox="0 0 56 36" fill="none" xmlns="http://www.w3.org/2000/svg">
<rect x="0.900009" y="0.5" width="54.4" height="35" rx="17.5" stroke="#6D6D6D"/>
<path d="M25.85 10.5H13.35C13.0185 10.5 12.7005 10.6317 12.4661 10.8661C12.2317 11.1005 12.1 11.4185 12.1 11.75V24.25C12.1 24.5815 12.2317 24.8995 12.4661 25.1339C12.7005 25.3683 13.0185 25.5 13.35 25.5H25.85C26.1815 25.5 26.4995 25.3683 26.7339 25.1339C26.9683 24.8995 27.1 24.5815 27.1 24.25V11.75C27.1 11.4185 26.9683 11.1005 26.7339 10.8661C26.4995 10.6317 26.1815 10.5 25.85 10.5ZM16.6578 16.9328C16.7159 16.8747 16.7848 16.8286 16.8607 16.7972C16.9365 16.7657 17.0179 16.7495 17.1 16.7495C17.1821 16.7495 17.2635 16.7657 17.3393 16.7972C17.4152 16.8286 17.4841 16.8747 17.5422 16.9328L18.975 18.3664V13.625C18.975 13.4592 19.0409 13.3003 19.1581 13.1831C19.2753 13.0658 19.4342 13 19.6 13C19.7658 13 19.9247 13.0658 20.0419 13.1831C20.1592 13.3003 20.225 13.4592 20.225 13.625V18.3664L21.6578 16.9328C21.7159 16.8747 21.7848 16.8287 21.8607 16.7973C21.9366 16.7658 22.0179 16.7497 22.1 16.7497C22.1821 16.7497 22.2634 16.7658 22.3393 16.7973C22.4152 16.8287 22.4841 16.8747 22.5422 16.9328C22.6003 16.9909 22.6463 17.0598 22.6778 17.1357C22.7092 17.2116 22.7254 17.2929 22.7254 17.375C22.7254 17.4571 22.7092 17.5384 22.6778 17.6143C22.6463 17.6902 22.6003 17.7591 22.5422 17.8172L20.0422 20.3172C19.9841 20.3753 19.9152 20.4214 19.8393 20.4529C19.7635 20.4843 19.6821 20.5005 19.6 20.5005C19.5179 20.5005 19.4365 20.4843 19.3607 20.4529C19.2848 20.4214 19.2159 20.3753 19.1578 20.3172L16.6578 17.8172C16.5997 17.7591 16.5536 17.6902 16.5222 17.6143C16.4907 17.5385 16.4745 17.4571 16.4745 17.375C16.4745 17.2929 16.4907 17.2115 16.5222 17.1357C16.5536 17.0598 16.5997 16.9909 16.6578 16.9328ZM25.85 24.25H13.35V21.125H15.5914L17.1 22.6344C17.2158 22.7507 17.3535 22.8429 17.5052 22.9057C17.6569 22.9684 17.8195 23.0005 17.9836 23H21.2164C21.3806 23.0005 21.5433 22.9684 21.695 22.9055C21.8467 22.8426 21.9844 22.7502 22.1 22.6336L23.6086 21.125H25.85V24.25Z" fill="#D9D9D9"/>
<path d="M43.2953 12.0625V23.5H41.85V13.8672L38.9359 14.9297V13.625L43.0688 12.0625H43.2953Z" fill="#D9D9D9"/>
</svg>
