<svg width="18" height="20" viewBox="0 0 18 20" fill="none" xmlns="http://www.w3.org/2000/svg">
<mask id="mask0_252_714" style="mask-type:alpha" maskUnits="userSpaceOnUse" x="0" y="0" width="18" height="20">
<path fill-rule="evenodd" clip-rule="evenodd" d="M11.8134 8.20307C11.8216 10.8262 9.81347 12.96 7.32778 12.9686C4.84209 12.9773 2.82071 10.8575 2.81253 8.23434C2.80435 5.6112 4.81247 3.47741 7.29816 3.46878C9.78385 3.46014 11.8052 5.57993 11.8134 8.20307ZM11.1573 14.0762C10.0723 14.871 8.75573 15.3387 7.33519 15.3436C3.60703 15.3566 0.574808 12.1771 0.562537 8.24216C0.550267 4.30717 3.56259 1.10674 7.29075 1.09379C11.0189 1.08084 14.0511 4.26027 14.0634 8.19525C14.068 9.67985 13.6421 11.0599 12.9097 12.2036L16.2797 15.8094C16.9312 16.5064 16.9276 17.6276 16.2717 18.3199L15.6938 18.9299L11.1573 14.0762Z" fill="black"/>
</mask>
<g mask="url(#mask0_252_714)">
<rect y="0.5" width="18" height="19" fill="#D9D9D9"/>
</g>
</svg>
