<svg width="24" height="24" viewBox="0 0 24 24" fill="none" xmlns="http://www.w3.org/2000/svg">
<mask id="mask0_2449_3872" style="mask-type:alpha" maskUnits="userSpaceOnUse" x="4" y="4" width="16" height="16">
<path fill-rule="evenodd" clip-rule="evenodd" d="M14.5008 10.4868C14.5081 12.6958 12.7231 14.4926 10.5136 14.4999C8.30408 14.5072 6.50729 12.7221 6.50002 10.5131C6.49275 8.30417 8.27775 6.50729 10.4873 6.50002C12.6968 6.49275 14.4935 8.27783 14.5008 10.4868ZM13.9176 15.4326C12.9532 16.1019 11.7829 16.4957 10.5202 16.4999C7.20625 16.5108 4.51094 13.8334 4.50003 10.5197C4.48913 7.20604 7.16675 4.51094 10.4807 4.50003C13.7946 4.48913 16.4899 7.16654 16.5008 10.4802C16.5049 11.7304 16.1263 12.8925 15.4753 13.8557L18.4709 16.8921C19.0499 17.479 19.0467 18.4233 18.4637 19.0062L17.95 19.52L13.9176 15.4326Z" fill="black"/>
</mask>
<g mask="url(#mask0_2449_3872)">
<rect width="24" height="24" fill="#D9D9D9"/>
</g>
</svg>
