<svg width="17" height="16" viewBox="0 0 17 16" fill="none" xmlns="http://www.w3.org/2000/svg">
<path d="M15.2538 7.35378L10.2538 12.3538C10.1838 12.4238 10.0947 12.4715 9.99765 12.4908C9.90061 12.5101 9.80002 12.5002 9.70861 12.4623C9.6172 12.4245 9.53908 12.3603 9.48414 12.278C9.42921 12.1957 9.39992 12.099 9.4 12V9.5144C5.83125 9.7169 3.38438 12.0313 2.6975 12.7644C2.58965 12.8796 2.44821 12.9578 2.29332 12.988C2.13842 13.0181 1.97797 12.9986 1.83479 12.9323C1.69161 12.866 1.57299 12.7562 1.49583 12.6185C1.41867 12.4809 1.38688 12.3224 1.405 12.1657C1.63688 10.1494 2.74125 8.21003 4.515 6.70503C5.98813 5.45503 7.77875 4.6619 9.4 4.52315V2.00003C9.39992 1.90108 9.42921 1.80433 9.48414 1.72204C9.53908 1.63974 9.6172 1.57559 9.70861 1.53772C9.80002 1.49984 9.90061 1.48994 9.99765 1.50926C10.0947 1.52859 10.1838 1.57627 10.2538 1.64628L15.2538 6.64628C15.3002 6.69271 15.3371 6.74786 15.3623 6.80856C15.3874 6.86926 15.4004 6.93432 15.4004 7.00003C15.4004 7.06574 15.3874 7.1308 15.3623 7.1915C15.3371 7.2522 15.3002 7.30734 15.2538 7.35378Z" fill="#D9D9D9"/>
</svg>
