<svg width="20" height="20" viewBox="0 0 20 20" fill="none" xmlns="http://www.w3.org/2000/svg">
<path d="M18.0462 8.51149L17.9916 8.55919L14.4681 11.6342L14.2424 11.8312L14.3097 12.1232L15.3651 16.7014L15.3654 16.7027C15.399 16.8463 15.3894 16.9965 15.338 17.1347C15.2865 17.2729 15.1955 17.3929 15.0762 17.4796C14.957 17.5664 14.8148 17.616 14.6675 17.6224C14.5204 17.6288 14.3748 17.5917 14.2486 17.5159C14.2484 17.5157 14.2482 17.5156 14.2479 17.5155L10.2562 15.0943L9.99661 14.9369L9.73718 15.0946L5.75443 17.5155C5.75415 17.5156 5.75386 17.5158 5.75358 17.516C5.62748 17.5918 5.48188 17.6288 5.33489 17.6224C5.18757 17.616 5.0454 17.5664 4.92615 17.4796C4.8069 17.3929 4.71587 17.2729 4.66443 17.1347L4.19584 17.3092L4.66442 17.1347C4.61298 16.9965 4.60342 16.8463 4.63694 16.7027L4.63725 16.7013L5.69115 12.1279L5.75839 11.8361L5.53293 11.6391L2.00871 8.5594L2.00872 8.5594L2.00626 8.55727C1.89442 8.46082 1.81355 8.33348 1.77379 8.19125C1.73402 8.04901 1.73714 7.8982 1.78275 7.75773C1.82835 7.61726 1.91442 7.49338 2.03015 7.40162L1.7245 7.0161L2.03015 7.40162C2.14588 7.30987 2.28612 7.25433 2.43329 7.24196L2.43457 7.24185L7.07988 6.83951L7.38099 6.81343L7.49785 6.5347L9.31113 2.2097L9.31146 2.20891C9.36815 2.07303 9.46379 1.95696 9.58631 1.87532C9.70884 1.79368 9.85278 1.75012 10 1.75012C10.1473 1.75012 10.2912 1.79368 10.4137 1.87532C10.5362 1.95696 10.6319 2.07303 10.6886 2.20891L10.6891 2.21019L12.5079 6.53519L12.6249 6.81345L12.9256 6.83951L17.5694 7.24185L17.5706 7.24196C17.7178 7.25433 17.8581 7.30987 17.9738 7.40162C18.0895 7.49338 18.1756 7.61726 18.2212 7.75773C18.2668 7.8982 18.2699 8.04901 18.2302 8.19125C18.1964 8.31199 18.133 8.422 18.0462 8.51149Z" stroke="#FFB831"/>
</svg>
