<svg width="16" height="16" viewBox="0 0 16 16" fill="none" xmlns="http://www.w3.org/2000/svg">
<path d="M14.6563 7.14875L11.8375 9.60875L12.6819 13.2712C12.7266 13.4627 12.7138 13.6631 12.6452 13.8474C12.5767 14.0316 12.4553 14.1916 12.2963 14.3072C12.1373 14.4229 11.9477 14.4891 11.7513 14.4976C11.5549 14.5061 11.3603 14.4565 11.1919 14.355L7.99753 12.4175L4.81003 14.355C4.64163 14.4565 4.44706 14.5061 4.25063 14.4976C4.05421 14.4891 3.86465 14.4229 3.70565 14.3072C3.54665 14.1916 3.42527 14.0316 3.35668 13.8474C3.28809 13.6631 3.27534 13.4627 3.32003 13.2712L4.16315 9.6125L1.34378 7.14875C1.19466 7.02014 1.08683 6.85036 1.03381 6.66071C0.980795 6.47107 0.984951 6.26999 1.04576 6.08269C1.10657 5.89539 1.22132 5.73022 1.37562 5.60788C1.52993 5.48554 1.71692 5.41149 1.91315 5.395L5.6294 5.07312L7.08003 1.61312C7.15578 1.43157 7.28356 1.27649 7.44727 1.16741C7.61098 1.05833 7.8033 1.00012 8.00003 1.00012C8.19675 1.00012 8.38907 1.05833 8.55279 1.16741C8.7165 1.27649 8.84427 1.43157 8.92003 1.61312L10.375 5.07312L14.09 5.395C14.2863 5.41149 14.4732 5.48554 14.6276 5.60788C14.7819 5.73022 14.8966 5.89539 14.9574 6.08269C15.0182 6.26999 15.0224 6.47107 14.9694 6.66071C14.9163 6.85036 14.8085 7.02014 14.6594 7.14875H14.6563Z" fill="#FFB831"/>
</svg>
