<svg width="36" height="36" viewBox="0 0 36 36" fill="none" xmlns="http://www.w3.org/2000/svg">
<path d="M18 0C14.4401 0 10.9598 1.05568 7.99974 3.03354C5.03966 5.0114 2.73256 7.82262 1.37018 11.1117C0.00780644 14.4007 -0.348662 18.02 0.345868 21.5116C1.0404 25.0034 2.75474 28.2105 5.27209 30.728C7.78943 33.2453 10.9967 34.9596 14.4884 35.6542C17.98 36.3488 21.5993 35.9921 24.8884 34.6298C28.1774 33.2674 30.9886 30.9605 32.9666 28.0004C34.9443 25.0403 36 21.5602 36 18C36 13.2261 34.1035 8.64774 30.728 5.27209C27.3524 1.89641 22.7738 0 18 0ZM26.8425 12.33L23.895 26.2575C23.67 27.2475 23.085 27.4725 22.2525 27.0225L17.7525 23.6925L15.5025 25.785C15.3965 25.9234 15.2604 26.0359 15.1045 26.114C14.9486 26.1918 14.7769 26.2332 14.6025 26.235L14.9175 21.735L23.2425 14.1975C23.625 13.8825 23.2425 13.7025 22.7025 14.0175L12.4875 20.43L7.9875 19.035C7.02 18.7425 6.9975 18.0675 8.19 17.6175L25.5375 10.8675C26.3925 10.62 27.1125 11.115 26.8425 12.33Z" fill="#D9D9D9"/>
</svg>
