<svg width="25" height="24" viewBox="0 0 25 24" fill="none" xmlns="http://www.w3.org/2000/svg">
<path d="M12.5 0C10.1267 0 7.80654 0.703785 5.83316 2.02236C3.85977 3.34094 2.3217 5.21508 1.41345 7.4078C0.505204 9.60045 0.267559 12.0134 0.730579 14.3411C1.1936 16.6689 2.33649 18.807 4.01472 20.4854C5.69295 22.1636 7.83114 23.3064 10.1589 23.7695C12.4866 24.2325 14.8995 23.9948 17.0922 23.0865C19.285 22.1783 21.159 20.6403 22.4777 18.6669C23.7962 16.6935 24.5 14.3735 24.5 12C24.5 8.81741 23.2357 5.76516 20.9854 3.51473C18.7349 1.26428 15.6826 0 12.5 0ZM18.395 8.22L16.43 17.505C16.28 18.165 15.89 18.315 15.335 18.015L12.335 15.795L10.835 17.19C10.7644 17.2823 10.6736 17.3573 10.5697 17.4093C10.4657 17.4612 10.3512 17.4888 10.235 17.49L10.445 14.49L15.995 9.465C16.25 9.255 15.995 9.135 15.635 9.345L8.825 13.62L5.825 12.69C5.18 12.495 5.165 12.045 5.96 11.745L17.525 7.245C18.095 7.08 18.575 7.41 18.395 8.22Z" fill="#D9D9D9"/>
</svg>
