<svg width="23" height="16" viewBox="0 0 23 16" fill="none" xmlns="http://www.w3.org/2000/svg">
<path d="M4.38537 9.0832H21.0206C21.3312 9.0832 21.5915 8.97938 21.8016 8.77175C22.0117 8.56411 22.1168 8.30681 22.1168 7.99987C22.1168 7.69293 22.0117 7.43563 21.8016 7.228C21.5915 7.02036 21.3312 6.91654 21.0206 6.91654H4.38537L8.63324 2.69154C8.83421 2.49293 8.93927 2.24466 8.9484 1.94674C8.95754 1.64883 8.85248 1.39154 8.63324 1.17487C8.43226 0.976259 8.17648 0.876953 7.86588 0.876953C7.55528 0.876953 7.2995 0.976259 7.09852 1.17487L0.959665 7.24154C0.850042 7.34987 0.772393 7.46723 0.726717 7.59362C0.681041 7.72001 0.658203 7.85543 0.658203 7.99987C0.658203 8.14431 0.681041 8.27973 0.726717 8.40612C0.772393 8.53251 0.850042 8.64987 0.959665 8.7582L7.09852 14.8249C7.2995 15.0235 7.55072 15.1228 7.85218 15.1228C8.15364 15.1228 8.41399 15.0235 8.63324 14.8249C8.85248 14.6082 8.96211 14.3509 8.96211 14.053C8.96211 13.7551 8.85248 13.4978 8.63324 13.2811L4.38537 9.0832Z" fill="#D9D9D9"/>
</svg>
