<svg width="28" height="26" viewBox="0 0 28 26" fill="none" xmlns="http://www.w3.org/2000/svg">
<mask id="mask0_1792_3343" style="mask-type:alpha" maskUnits="userSpaceOnUse" x="0" y="0" width="28" height="26">
<rect x="0.845703" width="26.3094" height="26" fill="#D9D9D9"/>
</mask>
<g mask="url(#mask0_1792_3343)">
<path d="M7.23107 14.0832H23.8663C24.1769 14.0832 24.4372 13.9794 24.6473 13.7717C24.8575 13.5641 24.9625 13.3068 24.9625 12.9999C24.9625 12.6929 24.8575 12.4356 24.6473 12.228C24.4372 12.0204 24.1769 11.9165 23.8663 11.9165H7.23107L11.4789 7.69154C11.6799 7.49293 11.785 7.24466 11.7941 6.94674C11.8032 6.64883 11.6982 6.39154 11.4789 6.17487C11.278 5.97626 11.0222 5.87695 10.7116 5.87695C10.401 5.87695 10.1452 5.97626 9.94423 6.17487L3.80537 12.2415C3.69575 12.3499 3.6181 12.4672 3.57242 12.5936C3.52674 12.72 3.50391 12.8554 3.50391 12.9999C3.50391 13.1443 3.52674 13.2797 3.57242 13.4061C3.6181 13.5325 3.69575 13.6499 3.80537 13.7582L9.94423 19.8249C10.1452 20.0235 10.3964 20.1228 10.6979 20.1228C10.9993 20.1228 11.2597 20.0235 11.4789 19.8249C11.6982 19.6082 11.8078 19.3509 11.8078 19.053C11.8078 18.7551 11.6982 18.4978 11.4789 18.2811L7.23107 14.0832Z" fill="#6D6D6D"/>
</g>
</svg>
